#!OML:ASF E:\emotionWalksFemale\Project 1\Capture day 1\Session 1\Female1.ASF
:FULLY-SPECIFIED
:DEGREES
326
root 7.54391 15.0495 41.4674 -177.43 0.0298505 -177.516
lowerback 8.64058 2.76485 -5.6605
upperback -0.714952 3.22822 -4.9756
thorax -5.61761 1.84913 -2.49077
lowerneck -6.17884 -3.22506 -9.00111
upperneck 5.07909 -4.41014 11.4168
head 2.97168 -2.02336 4.74431
rclavicle 1.59028e-015 -1.59028e-015
rhumerus -25.8139 43.6132 -114.591
rradius 34.4815
rwrist 16.5893
rhand 1.89624 -55.1038
rfingers 7.12502
rthumb 27.4054 -83.1307
lclavicle 1.59028e-015 -1.59028e-015
lhumerus -54.0238 -64.8905 142.775
lradius 103.533
lwrist 29.3325
lhand 15.5728 -28.4087
lfingers 7.12502
lthumb 40.3906 -3.30165
rfemur -30.2153 6.21091 24.5604
rtibia 48.0885
rfoot -15.7044 -20.5494
rtoes 5.33175
lfemur -10.6366 -15.2545 -24.9104
ltibia 32.1278
lfoot -27.712 14.5205
ltoes -10.9142
327
root 7.54579 15.0492 41.4434 -177.535 -0.00829993 -177.468
lowerback 8.93506 2.78451 -5.56763
upperback -0.694238 3.24207 -5.015
thorax -5.75491 1.8554 -2.60452
lowerneck -6.20885 -3.30798 -8.90616
upperneck 4.97427 -4.51116 11.3224
head 2.95195 -2.07411 4.69304
rclavicle 3.93594e-014 5.40694e-014
rhumerus -25.7275 43.6293 -114.541
rradius 34.4317
rwrist 16.4939
rhand 0.0882484 -55.1411
rfingers 7.12502
rthumb 25.6749 -83.4297
lclavicle 3.93594e-014 5.40694e-014
lhumerus -54.1302 -64.8756 142.789
lradius 103.575
lwrist 29.4298
lhand 15.4035 -28.4917
lfingers 7.12502
lthumb 40.2314 -3.33584
rfemur -30.2025 6.48983 24.5227
rtibia 47.1108
rfoot -15.5206 -20.5068
rtoes 4.46181
lfemur -10.4212 -15.2058 -24.9095
ltibia 32.1521
lfoot -27.7258 14.5399
ltoes -11.3749
328
root 7.54771 15.0482 41.417 -177.674 0.0339053 -177.463
lowerback 9.22381 2.8178 -5.55945
upperback -0.662391 3.26845 -5.04873
thorax -5.88211 1.87084 -2.66667
lowerneck -6.24062 -3.27711 -8.98558
upperneck 4.87522 -4.46932 11.4984
head 2.92959 -2.05102 4.76309
rclavicle -7.05686e-014 8.90555e-014
rhumerus -25.6324 43.6548 -114.501
rradius 34.4151
rwrist 16.4004
rhand 1.8802 -55.2715
rfingers 7.12502
rthumb 27.39 -83.3008
lclavicle -7.05686e-014 8.90555e-014
lhumerus -54.0617 -64.7994 142.63
lradius 103.55
lwrist 29.2237
lhand 15.6578 -28.973
lfingers 7.12502
lthumb 40.4705 -3.89065
rfemur -30.128 6.93929 24.3842
rtibia 46.1231
rfoot -15.7249 -20.3204
rtoes 4.83141
lfemur -10.1553 -15.1939 -24.983
ltibia 32.1917
lfoot -27.9167 14.3407
ltoes -10.5284
329
root 7.55093 15.0457 41.3915 -177.569 0.0436175 -177.413
lowerback 9.28573 2.80618 -5.56269
upperback -0.700858 3.24353 -5.0591
thorax -5.95768 1.85923 -2.67869
lowerneck -6.19807 -3.25168 -9.04285
upperneck 4.80194 -4.43275 11.5652
head 2.89981 -2.03423 4.79606
rclavicle 1.76918e-014 1.11319e-014
rhumerus -25.6426 43.3162 -114.488
rradius 34.485
rwrist 16.5411
rhand 4.0081 -55.3376
rfingers 7.12502
rthumb 29.4234 -83.0278
lclavicle 1.76918e-014 1.11319e-014
lhumerus -54.1482 -64.6873 142.668
lradius 103.487
lwrist 29.1613
lhand 16.2628 -29.6123
lfingers 7.12502
lthumb 41.0389 -4.70827
rfemur -30.3351 7.30765 24.2751
rtibia 45.1188
rfoot -15.8794 -20.3695
rtoes 5.46378
lfemur -10.1967 -15.191 -24.9106
ltibia 32.2578
lfoot -28.1646 14.1643
ltoes -9.47139
330
root 7.55413 15.0421 41.3679 -177.409 -0.010867 -177.286
lowerback 9.30308 2.76904 -5.44977
upperback -0.716954 3.20057 -5.06404
thorax -5.97821 1.83355 -2.74206
lowerneck -6.43368 -3.31046 -8.87898
upperneck 4.69673 -4.48839 11.4165
head 2.90667 -2.05681 4.71634
rclavicle 1.49089e-014 -5.88403e-014
rhumerus -25.6592 43.3336 -114.508
rradius 34.5166
rwrist 16.5534
rhand 3.18925 -55.4766
rfingers 7.12502
rthumb 28.6414 -83.3014
lclavicle 1.49089e-014 -5.88403e-014
lhumerus -53.9511 -64.5364 142.462
lradius 103.463
lwrist 28.7087
lhand 17.1592 -29.5296
lfingers 7.12502
lthumb 41.8801 -4.89952
rfemur -30.6008 7.59842 24.2435
rtibia 44.075
rfoot -15.7618 -20.5024
rtoes 5.1005
lfemur -10.3367 -15.1059 -24.7216
ltibia 32.343
lfoot -28.2515 14.1164
ltoes -10.0095
331
root 7.55684 15.0405 41.3411 -177.315 -0.0475084 -177.135
lowerback 9.29159 2.78764 -5.26768
upperback -0.695702 3.2466 -5.08817
thorax -5.9374 1.84951 -2.87313
lowerneck -6.39109 -3.383 -8.87594
upperneck 4.44047 -4.5825 11.5392
head 2.8367 -2.10565 4.74947
rclavicle -4.96962e-015 -1.1291e-013
rhumerus -25.6166 43.4448 -114.473
rradius 34.5509
rwrist 16.4135
rhand 2.34926 -55.8775
rfingers 7.12502
rthumb 27.8386 -83.8351
lclavicle -4.96962e-015 -1.1291e-013
lhumerus -54.3578 -64.7373 142.889
lradius 103.552
lwrist 29.2086
lhand 16.6998 -29.725
lfingers 7.12502
lthumb 41.4492 -4.95308
rfemur -30.756 8.0087 24.207
rtibia 42.9685
rfoot -15.6835 -20.3948
rtoes 4.17626
lfemur -10.3897 -15.0436 -24.547
ltibia 32.4577
lfoot -28.2722 14.2461
ltoes -11.2924
332
root 7.55986 15.0403 41.3085 -177.325 -0.013122 -177.009
lowerback 9.33169 2.8707 -5.11634
upperback -0.69153 3.36941 -5.09897
thorax -5.94548 1.90429 -2.98897
lowerneck -6.26883 -3.42897 -8.9282
upperneck 4.31755 -4.64878 11.6462
head 2.79096 -2.14233 4.78955
rclavicle -5.60573e-014 -4.29375e-014
rhumerus -25.5932 42.8641 -114.326
rradius 34.5733
rwrist 16.6514
rhand 3.38117 -55.9305
rfingers 7.12502
rthumb 28.8247 -83.7243
lclavicle -5.60573e-014 -4.29375e-014
lhumerus -54.7195 -64.7879 143.283
lradius 103.621
lwrist 29.3142
lhand 16.6522 -29.3363
lfingers 7.12502
lthumb 41.4046 -4.54984
rfemur -30.787 8.46903 24.1472
rtibia 41.8195
rfoot -15.4344 -20.4635
rtoes 1.81649
lfemur -10.261 -15.0535 -24.4492
ltibia 32.556
lfoot -28.5028 14.3038
ltoes -10.8656
333
root 7.56455 15.0367 41.2787 -177.379 0.0317636 -176.873
lowerback 9.49826 2.91575 -5.04393
upperback -0.65967 3.42374 -5.06661
thorax -6.00326 1.92756 -3.0128
lowerneck -6.54029 -3.51073 -8.80493
upperneck 4.48123 -4.74195 11.4158
head 2.88546 -2.18109 4.68821
rclavicle 6.12257e-014 3.33958e-014
rhumerus -25.4726 42.4459 -114.159
rradius 34.4841
rwrist 16.9356
rhand 4.25055 -55.564
rfingers 7.12502
rthumb 29.6549 -83.2133
lclavicle 6.12257e-014 3.33958e-014
lhumerus -54.5493 -64.6951 143.067
lradius 103.701
lwrist 28.9937
lhand 17.3535 -28.728
lfingers 7.12502
lthumb 42.0621 -4.15881
rfemur -30.7742 8.94806 24.0975
rtibia 40.6674
rfoot -15.0206 -20.7767
rtoes 1.01869
lfemur -10.0826 -15.0557 -24.3431
ltibia 32.6061
lfoot -28.7694 14.3354
ltoes -10.669
334
root 7.56865 15.0336 41.2541 -177.299 -0.0563096 -176.875
lowerback 9.61268 2.87085 -5.09939
upperback -0.633612 3.35405 -5.09449
thorax -6.04249 1.89714 -3.00799
lowerneck -6.87138 -3.59332 -8.66943
upperneck 4.60785 -4.84594 11.3184
head 2.98299 -2.22218 4.62461
rclavicle 4.96962e-014 -1.41535e-013
rhumerus -25.2936 42.5051 -114.098
rradius 34.349
rwrist 17.0615
rhand 3.72077 -55.3865
rfingers 7.12502
rthumb 29.1491 -83.1245
lclavicle 4.96962e-014 -1.41535e-013
lhumerus -54.7612 -64.8815 143.159
lradius 103.817
lwrist 29.5404
lhand 16.7442 -28.9015
lfingers 7.12502
lthumb 41.4909 -4.14316
rfemur -30.9097 9.39181 23.8408
rtibia 39.553
rfoot -14.9444 -20.9987
rtoes 1.88963
lfemur -10.0911 -15.1845 -24.3285
ltibia 32.6421
lfoot -28.9242 14.3906
ltoes -10.7997
335
root 7.56984 15.0329 41.2259 -177.152 -0.276495 -177.011
lowerback 9.67316 3.33656 -5.03404
upperback -0.629238 3.14467 -5.20217
thorax -6.09445 1.45043 -3.09969
lowerneck -6.82838 -3.61055 -8.73948
upperneck 4.43797 -4.87485 11.5374
head 2.93615 -2.23687 4.70349
rclavicle 6.16232e-014 -6.20208e-014
rhumerus -25.2713 42.2203 -114.127
rradius 34.1678
rwrist 17.3319
rhand 2.93118 -55.0441
rfingers 7.12502
rthumb 28.3948 -82.9103
lclavicle 6.16232e-014 -6.20208e-014
lhumerus -55.1396 -64.964 143.431
lradius 103.887
lwrist 29.6842
lhand 16.1821 -28.8522
lfingers 7.12502
lthumb 40.9632 -3.92408
rfemur -31.1264 9.72543 23.3862
rtibia 38.4953
rfoot -15.0681 -21.0438
rtoes 1.42485
lfemur -10.1708 -15.3687 -24.4412
ltibia 32.685
lfoot -29.0571 14.3085
ltoes -10.0979
336
root 7.57315 15.0289 41.193 -177.074 -0.446451 -176.998
lowerback 9.76768 3.28593 -4.96613
upperback -0.677817 3.07375 -5.21976
thorax -6.19563 1.41426 -3.15395
lowerneck -6.68025 -3.57912 -8.97182
upperneck 4.17946 -4.82401 11.8081
head 2.8426 -2.21673 4.83186
rclavicle 6.0033e-014 1.90833e-014
rhumerus -25.3579 41.9937 -114.223
rradius 34.0495
rwrist 17.3216
rhand 2.63514 -54.5331
rfingers 7.12502
rthumb 28.1119 -82.4462
lclavicle 6.0033e-014 1.90833e-014
lhumerus -55.3065 -64.91 143.51
lradius 103.893
lwrist 29.7022
lhand 15.94 -29.4215
lfingers 7.12502
lthumb 40.7357 -4.42167
rfemur -31.2615 10.1112 23.1014
rtibia 37.4625
rfoot -14.859 -21.0115
rtoes 0.151699
lfemur -10.1657 -15.3894 -24.4084
ltibia 32.7167
lfoot -29.1488 14.2238
ltoes -10.3381
337
root 7.58141 15.0244 41.1605 -177.048 -0.433933 -176.867
lowerback 9.85804 3.2598 -4.97706
upperback -0.707596 3.04005 -5.14806
thorax -6.2831 1.40309 -3.07427
lowerneck -6.46252 -3.55029 -9.0632
upperneck 3.88961 -4.77336 11.8715
head 2.71927 -2.20158 4.87322
rclavicle -9.93923e-015 5.725e-014
rhumerus -25.3834 42.0496 -114.315
rradius 34.0417
rwrist 17.1795
rhand 3.48161 -54.4095
rfingers 7.12502
rthumb 28.9207 -82.1868
lclavicle -9.93923e-015 5.725e-014
lhumerus -55.2472 -64.7563 143.412
lradius 103.823
lwrist 29.6681
lhand 16.0777 -29.5171
lfingers 7.12502
lthumb 40.8651 -4.55796
rfemur -31.3223 10.5877 22.9832
rtibia 36.3973
rfoot -14.7039 -21.0531
rtoes 0.61383
lfemur -10.0815 -15.2334 -24.2443
ltibia 32.7325
lfoot -29.2437 14.1586
ltoes -10.6843
338
root 7.59003 15.0232 41.1277 -176.973 -0.405731 -176.801
lowerback 9.87717 3.25488 -5.05741
upperback -0.747715 3.03001 -5.08249
thorax -6.34465 1.40515 -2.96211
lowerneck -6.22499 -3.53204 -9.07061
upperneck 3.62982 -4.73863 11.8202
head 2.59826 -2.19547 4.86425
rclavicle -1.39149e-014 9.54166e-015
rhumerus -25.5138 42.1765 -114.374
rradius 34.0444
rwrist 17.1461
rhand 4.37012 -54.6496
rfingers 7.12502
rthumb 29.769 -82.2784
lclavicle -1.39149e-014 9.54166e-015
lhumerus -55.1731 -64.5871 143.451
lradius 103.687
lwrist 29.5946
lhand 16.2152 -29.9094
lfingers 7.12502
lthumb 40.9942 -4.99123
rfemur -31.3854 11.0229 22.7924
rtibia 35.2932
rfoot -14.7288 -21.2312
rtoes 1.68625
lfemur -10.0185 -15.0855 -24.1386
ltibia 32.7487
lfoot -29.3675 14.0737
ltoes -10.7149
339
root 7.59765 15.0227 41.0917 -176.936 -0.442201 -176.753
lowerback 9.89606 3.20176 -4.9178
upperback -0.731293 2.96699 -5.14821
thorax -6.32737 1.36647 -3.09968
lowerneck -6.27593 -3.48556 -9.07574
upperneck 3.55851 -4.67639 11.9171
head 2.58173 -2.16309 4.89807
rclavicle 2.26615e-014 -3.18055e-015
rhumerus -25.63 42.2456 -114.545
rradius 34.0699
rwrist 17.3751
rhand 2.99444 -55.0201
rfingers 7.12502
rthumb 28.4552 -82.8762
lclavicle 2.26615e-014 -3.18055e-015
lhumerus -55.0483 -64.6144 143.281
lradius 103.645
lwrist 29.7953
lhand 15.901 -30.0597
lfingers 7.12502
lthumb 40.6991 -5.04838
rfemur -31.3775 11.6508 22.515
rtibia 34.2028
rfoot -14.7229 -21.5752
rtoes 0.526608
lfemur -9.88816 -15.0733 -24.0788
ltibia 32.7429
lfoot -29.4987 14.0899
ltoes -11.0354
340
root 7.60163 15.0206 41.0542 -176.9 -0.526695 -176.698
lowerback 9.79659 3.0721 -4.24979
upperback -0.62475 2.8344 -5.54618
thorax -6.10487 1.25948 -3.86162
lowerneck -6.32858 -3.41271 -8.90827
upperneck 3.37766 -4.61835 12.2828
head 2.53689 -2.13204 4.98653
rclavicle 1.03368e-014 -2.22639e-014
rhumerus -25.4045 42.2731 -115.006
rradius 34.1011
rwrist 17.4986
rhand 1.2069 -55.3207
rfingers 7.12502
rthumb 26.7459 -83.4502
lclavicle 1.03368e-014 -2.22639e-014
lhumerus -55.1269 -64.9321 142.721
lradius 103.755
lwrist 29.9032
lhand 15.9062 -29.8997
lfingers 7.12502
lthumb 40.7039 -4.88996
rfemur -31.3914 12.3421 22.1912
rtibia 33.1507
rfoot -14.7119 -21.8796
rtoes -1.12116
lfemur -9.77609 -15.1524 -24.0309
ltibia 32.7406
lfoot -29.5903 14.1913
ltoes -11.5796
